<?xml version="1.0" standalone="no"?>
<!DOCTYPE svg PUBLIC "-//W3C//DTD SVG 20010904//EN"
 "http://www.w3.org/TR/2001/REC-SVG-20010904/DTD/svg10.dtd">
<svg version="1.0" xmlns="http://www.w3.org/2000/svg"
 width="1079.000000pt" height="813.000000pt" viewBox="0 0 1079.000000 813.000000"
 preserveAspectRatio="xMidYMid meet">
<metadata>
Created by potrace 1.16, written by Peter Selinger 2001-2019
</metadata>
<g transform="translate(0.000000,813.000000) scale(0.100000,-0.100000)"
fill="#000000" stroke="none">
<path d="M0 5410 c0 -1496 2 -2720 5 -2720 3 0 94 34 202 76 244 94 250 96
272 82 12 -7 50 -6 137 6 65 9 166 19 222 23 l104 6 -7 46 c-3 25 -20 118 -36
206 -83 443 -82 461 61 846 143 385 209 531 300 663 29 42 98 120 155 174 124
119 127 132 52 207 -26 25 -47 49 -47 53 0 3 -7 13 -15 22 -8 9 -17 37 -19 61
-2 24 -9 45 -15 47 -8 3 -8 9 0 24 8 14 8 23 0 31 -5 5 -7 23 -4 38 5 25 2 29
-16 29 -26 0 -28 26 -4 52 12 13 14 21 6 26 -6 4 -14 41 -18 82 -4 41 -12 79
-19 83 -6 5 -1 6 12 2 20 -6 22 -3 22 27 0 21 7 40 20 51 12 10 20 29 20 47 0
19 9 40 24 55 22 22 23 26 9 34 -20 10 -9 46 11 38 14 -6 36 10 36 26 0 5 -6
7 -14 4 -15 -6 -26 31 -26 87 0 23 3 27 10 16 7 -12 12 -12 22 -2 16 16 45 16
51 0 3 -7 6 2 6 20 1 26 5 32 22 32 16 0 20 5 16 20 -3 13 0 20 9 20 7 0 11 6
8 14 -3 8 -1 24 6 35 9 17 15 19 30 11 15 -8 17 -15 10 -40 -7 -26 -6 -30 10
-30 27 0 31 12 18 48 -11 28 -9 33 13 51 13 11 32 20 41 21 10 0 19 11 23 30
6 25 9 28 25 20 28 -15 60 -12 60 5 0 8 9 15 20 15 13 0 20 7 20 19 0 15 7 19
35 18 26 -1 40 5 51 21 8 12 24 22 34 22 10 0 21 4 24 9 3 4 19 11 36 14 18 4
30 13 30 22 0 8 5 15 10 15 6 0 10 -4 10 -10 0 -10 27 -3 49 14 13 10 68 10
103 0 10 -3 15 -11 11 -20 -7 -19 21 -18 37 1 18 22 30 18 30 -9 0 -32 17 -42
25 -16 3 11 12 20 20 20 7 0 20 3 29 6 10 4 19 -3 27 -20 11 -23 16 -25 51
-20 25 4 38 3 38 -5 0 -6 7 -11 15 -11 9 0 18 -7 21 -15 4 -8 10 -12 15 -9 5
3 9 1 9 -4 0 -6 7 -13 16 -16 9 -4 13 -2 8 5 -4 6 -2 14 3 18 5 3 16 44 25 90
l16 85 -45 89 c-54 109 -79 188 -96 304 -25 172 -3 359 57 483 l25 52 -34 327
c-19 179 -37 343 -40 364 l-5 37 1417 -2 c835 0 1340 -4 1228 -9 -365 -14
-852 -30 -1040 -34 -104 -2 -314 -9 -465 -15 -151 -7 -320 -13 -375 -15 -150
-4 -157 -4 -152 -12 3 -5 103 -5 224 -2 201 6 334 11 1043 39 140 5 408 15
595 21 187 6 358 13 380 16 22 3 749 7 1615 8 l1575 3 -430 -23 c-377 -21
-402 -23 -205 -19 251 5 741 24 810 31 25 2 185 6 355 9 l310 5 -2 -48 c-2
-26 -12 -235 -23 -463 -12 -228 -36 -712 -55 -1075 -19 -363 -42 -815 -50
-1005 -9 -190 -22 -475 -31 -635 -8 -159 -18 -352 -21 -427 -3 -76 -9 -138
-12 -138 -3 0 -14 11 -23 24 -19 26 -18 72 3 172 10 51 10 67 -4 109 -18 55
-22 96 -12 136 5 19 -4 48 -34 110 -23 45 -41 97 -41 114 0 32 -33 95 -50 95
-6 0 -15 11 -21 24 -6 13 -26 32 -43 41 -27 15 -31 22 -28 46 3 18 0 29 -7 29
-7 0 -19 16 -27 35 -8 20 -26 41 -39 47 -24 11 -31 9 -86 -20 -4 -1 -12 11
-19 28 -10 24 -10 33 0 45 10 13 9 15 -8 15 -12 0 -23 4 -26 9 -3 5 -34 12
-68 15 -57 6 -65 10 -81 38 -11 19 -23 28 -32 24 -9 -3 -15 0 -15 9 0 12 -15
15 -69 15 -38 0 -82 5 -98 11 -31 12 -212 19 -218 9 -2 -4 -28 -6 -56 -4 -33
1 -60 -3 -74 -12 -12 -8 -40 -15 -61 -15 -64 -2 -195 -48 -249 -89 -27 -20
-55 -39 -62 -41 -6 -2 -53 -42 -103 -88 -127 -116 -207 -239 -229 -351 -6 -30
-18 -84 -27 -120 -26 -107 -31 -176 -28 -377 2 -170 5 -197 24 -239 11 -27 27
-55 34 -64 7 -8 16 -28 20 -45 22 -97 94 -230 114 -211 3 4 -4 46 -17 94 -13
48 -27 106 -31 129 -7 47 5 268 20 353 5 30 12 89 15 130 12 149 43 237 102
291 37 35 83 44 83 17 0 -28 18 -58 35 -58 8 0 15 5 15 10 0 6 9 10 20 10 25
0 26 -20 1 -27 -27 -7 -5 -48 39 -70 19 -10 40 -23 46 -29 21 -18 3 -84 -22
-84 -14 0 -18 -12 -15 -37 1 -7 -5 -13 -14 -13 -8 0 -20 -11 -25 -25 -5 -14
-18 -25 -27 -25 -10 0 -41 -15 -69 -32 -28 -18 -67 -42 -88 -53 -42 -21 -86
-69 -86 -92 0 -12 8 -15 40 -10 22 3 40 3 40 1 0 -6 -31 -88 -39 -104 -5 -8
-7 -26 -5 -40 1 -14 3 -29 3 -33 2 -14 64 4 87 24 35 33 52 25 50 -23 l-1 -43
55 -3 c115 -7 213 48 254 143 13 27 30 56 39 64 10 7 17 18 17 23 0 10 29 43
34 37 18 -25 55 -112 50 -120 -3 -5 -1 -15 4 -22 6 -7 11 -16 12 -22 8 -39 79
-55 113 -26 12 9 39 11 94 8 59 -3 91 0 132 14 30 11 62 19 71 19 9 0 34 16
56 36 37 33 42 35 96 32 32 -3 60 -7 63 -10 3 -3 8 -23 11 -44 3 -22 9 -55 14
-74 5 -19 11 -61 14 -92 3 -50 1 -59 -20 -77 -13 -12 -27 -20 -32 -19 -13 3
-62 -14 -62 -22 0 -9 -58 -19 -66 -11 -3 3 -11 6 -17 6 -15 0 -220 68 -227 75
-18 18 -74 40 -104 40 -20 0 -36 5 -36 10 0 6 -6 10 -12 10 -7 -1 0 -12 17
-25 20 -17 33 -21 41 -14 8 6 14 7 18 0 4 -5 2 -12 -3 -15 -5 -3 -7 -24 -4
-46 l6 -39 -30 8 c-17 5 -39 14 -50 20 -11 5 -50 10 -87 10 -38 -1 -73 4 -81
11 -11 9 -15 9 -15 1 0 -6 -9 -11 -20 -11 -11 0 -20 -4 -20 -9 0 -5 -21 -21
-46 -36 -57 -33 -69 -22 -47 42 18 51 13 61 -22 45 -15 -7 -25 -8 -25 -2 0 12
-36 -23 -42 -40 -6 -18 -50 -27 -87 -18 -8 2 -17 -6 -19 -16 -2 -10 -16 -29
-31 -41 -40 -35 -83 -125 -85 -181 -3 -54 8 -84 71 -192 47 -80 50 -87 28 -75
-17 10 -94 131 -114 181 -12 29 -15 31 -30 18 -10 -10 -22 -12 -30 -6 -8 4
-38 6 -67 3 l-53 -6 -5 34 c-3 19 -15 115 -27 214 -12 99 -23 183 -26 188 -6
10 -41 9 -47 -2 -3 -4 3 -82 14 -172 11 -90 20 -188 20 -216 0 -52 0 -53 -30
-53 -35 0 -35 4 -13 -88 16 -70 16 -73 -3 -87 -10 -8 -40 -15 -66 -15 -26 0
-49 -4 -53 -9 -10 -17 10 -20 68 -12 46 6 57 5 57 -6 0 -8 -4 -12 -9 -9 -5 3
-12 -5 -15 -18 -4 -17 -15 -25 -40 -30 -18 -4 -41 -4 -50 0 -10 4 -16 1 -16
-9 0 -9 -4 -19 -10 -22 -5 -3 -7 0 -4 8 3 8 1 18 -5 22 -6 3 -11 1 -11 -5 0
-6 -4 -8 -10 -5 -12 7 -14 26 -2 24 22 -4 42 2 37 11 -5 8 -62 4 -73 -5 -4 -4
120 -185 178 -260 53 -68 120 -170 120 -181 0 -4 -12 3 -26 17 l-27 24 27 -43
c25 -40 44 -137 26 -130 -5 2 -33 35 -63 73 -30 39 -60 69 -66 67 -7 -1 -9 2
-6 8 4 6 -5 22 -20 36 -17 15 -25 19 -22 10 4 -9 2 -16 -3 -16 -4 0 -12 -15
-15 -32 -4 -18 -12 -39 -18 -46 -7 -9 -2 -27 19 -65 18 -33 28 -67 29 -93 l0
-42 -41 38 c-68 63 -75 64 -166 44 -21 -4 -28 -12 -28 -30 0 -13 5 -24 10 -24
6 0 10 -4 10 -10 0 -5 -7 -7 -15 -4 -8 4 -15 1 -15 -5 0 -6 -7 -8 -15 -5 -13
5 -15 -9 -17 -87 -1 -52 -3 -107 -4 -124 -1 -16 -2 -40 -3 -52 -1 -16 -7 -23
-21 -23 -43 0 -46 -98 -4 -114 8 -3 14 -11 14 -18 0 -6 25 -55 56 -107 152
-260 152 -260 148 -304 -5 -48 19 -139 41 -157 12 -10 20 -9 41 5 26 17 28 17
45 -6 10 -13 33 -51 50 -84 29 -56 29 -58 7 -37 -15 13 -37 22 -56 22 -25 0
-32 4 -32 19 0 14 -6 17 -25 14 -24 -5 -24 -6 -10 -39 8 -19 11 -34 8 -34 -4
0 1 -6 12 -13 24 -19 13 -23 -75 -31 -41 -4 -151 -18 -245 -31 -219 -31 -350
-41 -341 -27 3 6 -1 15 -10 20 -16 9 -15 11 5 21 27 15 91 21 111 11 13 -7
128 7 139 16 3 3 -5 12 -18 20 -20 15 -21 17 -5 28 16 12 16 13 -1 20 -13 5
-15 9 -6 20 8 10 9 16 1 21 -6 3 -8 10 -5 15 8 13 16 133 9 152 -3 10 -14 18
-24 18 -35 0 -52 11 -39 26 6 8 18 14 25 14 8 0 14 7 14 15 0 8 -5 15 -11 15
-5 0 -7 -5 -3 -12 5 -8 0 -9 -17 -3 -13 4 -39 8 -57 8 -33 0 -33 1 -14 16 18
14 19 19 8 34 -16 21 -26 22 -26 3 0 -8 -8 -13 -17 -11 -10 1 -17 7 -16 12 1
6 -39 5 -99 -3 -113 -13 -131 -11 -123 17 4 11 2 19 -4 19 -6 0 -11 11 -11 25
0 21 9 29 45 45 43 18 45 21 45 59 0 39 15 53 57 55 14 1 15 3 7 33 -5 18 -11
21 -35 16 -28 -5 -29 -4 -29 36 0 40 1 41 61 72 34 16 63 28 66 25 3 -3 -2 -8
-11 -12 -23 -9 -20 -27 4 -19 11 3 20 2 20 -3 0 -5 -10 -13 -22 -17 -21 -6
-20 -7 11 -16 18 -6 40 -17 48 -25 18 -18 29 -18 37 1 3 8 12 15 19 15 40 0
64 80 38 129 -9 16 -9 26 0 42 8 17 8 29 -5 58 -8 20 -16 45 -18 56 -2 14 -14
22 -38 26 -19 4 -53 14 -75 23 -46 18 -77 20 -90 7 -6 -6 -29 -5 -59 3 -47 12
-49 14 -66 67 -19 57 -76 252 -106 358 l-17 63 -111 -6 c-61 -4 -138 -11 -171
-16 -33 -5 -85 -10 -115 -12 -50 -3 -55 -1 -51 17 2 11 3 34 3 52 0 27 4 33
28 38 27 6 49 27 92 89 14 19 30 26 75 32 32 3 64 11 71 17 18 14 103 2 149
-22 42 -21 248 -236 262 -273 4 -12 5 -34 0 -48 -17 -57 -42 -181 -36 -186 12
-12 26 8 32 47 4 23 15 59 24 80 16 36 19 37 34 21 16 -15 17 -15 17 8 0 56
-49 131 -162 247 -124 126 -174 159 -263 169 -30 4 -58 11 -61 15 -3 5 -20 9
-39 9 l-33 0 29 29 c28 29 37 64 21 88 -4 6 -25 24 -47 39 -30 21 -52 27 -88
27 -57 -1 -65 9 -38 43 17 22 21 41 21 109 0 61 -4 86 -15 95 -8 7 -15 18 -15
24 0 7 -10 22 -23 34 -26 24 -73 34 -69 15 4 -23 -16 -14 -21 10 -12 50 -16
125 -33 635 -7 191 -7 194 -30 203 -22 8 -24 14 -24 76 0 38 -3 104 -5 148
-11 175 -35 708 -35 779 0 44 4 76 10 76 6 0 10 33 10 80 0 75 -2 81 -24 91
-17 8 -135 3 -457 -20 -239 -17 -528 -38 -644 -46 -115 -9 -252 -19 -303 -23
-92 -8 -93 -8 -105 17 -17 35 -35 37 -39 4 -2 -20 -9 -29 -26 -31 -15 -2 -23
1 -21 10 3 27 -1 38 -16 38 -9 0 -15 -9 -15 -25 0 -30 -7 -32 -147 -40 l-101
-6 -6 53 c-3 29 -15 141 -26 248 -12 107 -24 238 -27 291 l-4 97 55 52 c130
123 161 305 79 468 -14 28 -30 52 -35 52 -4 0 -8 6 -8 13 0 25 -86 96 -155
129 -67 32 -75 33 -190 33 -117 0 -122 -1 -180 -33 -33 -18 -73 -43 -88 -56
-50 -43 -121 -229 -112 -296 16 -128 36 -177 103 -251 24 -27 65 -64 91 -81
25 -18 49 -36 52 -41 6 -9 15 -88 25 -222 3 -38 9 -92 14 -120 5 -27 16 -106
25 -175 8 -69 17 -134 20 -145 9 -40 -14 -49 -152 -59 -11 0 -19 -4 -16 -8 2
-5 -20 -8 -50 -8 -54 0 -210 -17 -237 -26 -13 -4 -13 -6 0 -14 8 -6 10 -10 4
-10 -6 0 -10 -16 -10 -35 l1 -35 53 0 c62 0 62 -16 -2 -25 -40 -6 -44 -10 -59
-53 -9 -26 -19 -72 -21 -102 -2 -30 -7 -65 -11 -77 -11 -36 12 -331 50 -633
40 -314 45 -356 44 -380 -2 -30 -15 38 -24 124 -3 33 -8 63 -10 67 -3 3 -9 49
-15 100 -14 124 -20 159 -31 159 -4 0 -10 -17 -12 -37 -3 -31 -5 -34 -11 -17
-6 16 -14 20 -32 16 -21 -4 -24 -9 -19 -32 4 -19 1 -33 -10 -44 -19 -18 -35
-21 -35 -5 0 6 -12 9 -27 7 -24 -3 -28 1 -28 24 -1 15 -5 31 -9 35 -10 9 0
-121 19 -247 27 -182 60 -321 93 -390 42 -89 105 -179 163 -235 l41 -40 -4 33
c-3 18 -1 29 3 25 3 -4 10 -30 14 -57 7 -54 7 -54 -57 -3 -50 40 -121 131
-161 210 -39 74 -92 239 -108 336 -6 36 -14 73 -17 81 -3 8 -6 23 -7 33 -7 62
-29 137 -41 137 -13 0 -19 18 -15 48 1 6 -3 12 -9 12 -5 0 -10 -10 -10 -22 -1
-23 -1 -23 -16 2 l-15 25 3 -37 c2 -21 0 -34 -6 -31 -5 4 -6 -5 -2 -20 5 -20
2 -29 -14 -37 -11 -6 -20 -7 -19 -3 4 22 -2 43 -12 43 -6 0 -9 -9 -6 -20 7
-26 -8 -26 -30 0 -21 24 -55 26 -87 4 -24 -15 -44 -5 -31 16 3 6 -1 13 -10 16
-11 5 -13 10 -5 19 8 9 7 14 -2 17 -25 10 -38 -3 -32 -30 4 -15 3 -23 -2 -19
-9 9 -33 -70 -39 -130 -2 -23 -8 -59 -14 -79 -6 -21 -8 -41 -5 -45 7 -12 -16
-93 -29 -101 -9 -5 -9 -10 1 -20 16 -16 16 -48 -1 -48 -16 0 -52 -103 -44
-124 4 -9 2 -16 -3 -16 -6 0 -11 21 -11 48 -1 26 -3 39 -6 30 -2 -10 -13 -18
-24 -18 -21 0 -26 16 -6 23 6 2 4 3 -5 2 -10 -2 -23 3 -29 11 -16 19 -23 103
-10 118 6 7 6 17 1 26 -8 12 -10 12 -10 1 0 -19 -88 -103 -101 -96 -7 5 -7 11
0 19 6 7 13 30 15 51 3 22 10 41 16 43 5 2 10 12 10 22 0 10 4 22 10 25 5 3
10 14 10 24 0 29 32 121 40 116 5 -3 10 2 14 10 3 8 1 17 -4 20 -6 4 -10 0
-10 -7 0 -10 -2 -10 -9 1 -5 8 -16 11 -25 8 -19 -8 -52 3 -38 12 14 9 73 121
64 121 -4 0 -13 -5 -19 -11 -7 -7 -19 -8 -30 -4 -22 10 -75 6 -87 -6 -6 -5
-22 5 -41 24 -18 18 -37 31 -43 29 -6 -2 -17 6 -23 17 -10 15 -20 18 -41 14
-28 -5 -33 1 -29 35 1 6 -5 12 -14 12 -8 0 -15 -5 -15 -12 0 -6 -3 -8 -6 -5
-4 4 -1 13 6 22 51 61 -140 -87 -227 -176 -122 -126 -211 -297 -356 -689 -102
-273 -125 -349 -128 -420 -1 -25 15 -130 35 -235 21 -104 47 -239 57 -298 28
-155 27 -154 154 -159 63 -2 109 -8 116 -15 14 -14 1 -73 -32 -155 -10 -26
-19 -56 -19 -66 0 -19 2 -19 48 -5 26 8 64 12 85 9 38 -4 97 9 97 22 0 4 -26
6 -57 5 l-58 -3 54 15 c73 21 82 29 41 36 l-35 5 49 9 c28 4 59 16 70 27 28
26 92 41 143 33 28 -4 80 1 146 14 300 60 665 91 793 69 43 -8 97 -8 175 -2
124 11 229 8 229 -7 0 -5 -7 -9 -15 -9 -16 0 -20 -16 -7 -24 5 -3 12 -44 15
-90 3 -48 12 -95 21 -108 8 -13 16 -48 18 -78 3 -48 6 -55 26 -58 12 -2 22 -6
22 -10 0 -4 -7 -88 -15 -187 -19 -240 -19 -234 5 -228 17 4 20 0 20 -25 0 -24
-5 -31 -26 -36 -25 -7 -25 -8 -24 -89 1 -45 -2 -95 -8 -112 -10 -29 -10 -29
-12 -5 -1 14 -8 -4 -15 -40 -12 -61 -12 -66 9 -92 11 -15 31 -27 43 -27 32 -1
37 -17 11 -36 l-23 -17 24 5 c15 4 33 -2 51 -14 27 -20 29 -20 156 -4 71 9
216 19 323 22 207 6 210 5 211 -44 0 -12 6 -24 13 -26 9 -4 9 -7 -1 -15 -7 -5
-15 -26 -17 -47 -2 -21 -13 -51 -24 -66 -12 -16 -17 -29 -11 -29 6 0 8 -10 4
-24 -7 -28 3 -48 51 -106 21 -26 35 -51 32 -61 -5 -20 16 -28 83 -30 l45 -1
-55 -9 c-114 -17 -513 -71 -735 -99 -126 -16 -264 -34 -305 -40 -41 -5 -86
-10 -101 -10 -16 0 -38 -13 -59 -35 -37 -38 -50 -43 -50 -20 0 21 -20 19 -47
-7 -17 -16 -26 -19 -35 -10 -8 8 -8 15 2 27 11 13 8 15 -23 15 -20 0 -38 -4
-41 -9 -8 -13 -55 -20 -59 -8 -2 6 -32 6 -87 -2 -129 -17 -692 -81 -795 -91
-104 -10 -592 -64 -710 -80 -44 -5 -98 -9 -120 -9 -59 2 163 34 265 38 23 1
31 4 22 10 -10 6 -8 10 10 16 12 4 28 7 33 6 6 -1 1 6 -9 14 -11 8 -35 15 -53
15 -23 0 -33 5 -33 15 0 8 9 15 20 15 11 0 20 6 20 14 0 8 10 18 22 22 21 6
21 7 3 20 -10 8 -15 14 -11 14 5 0 3 7 -4 15 -10 12 -10 18 0 30 7 8 19 15 26
15 8 0 14 4 14 10 0 5 7 7 15 4 17 -7 20 13 6 35 -10 16 -31 6 -31 -15 0 -23
-14 -16 -28 13 -11 25 -10 29 15 50 16 12 34 22 41 23 6 0 12 7 12 15 0 18
-51 16 -86 -3 -30 -16 -38 -3 -12 18 28 23 18 46 -24 53 -23 3 -37 0 -45 -11
-7 -8 -16 -12 -20 -8 -5 4 0 14 10 21 29 21 6 55 -38 55 -24 0 -39 6 -47 20
-7 11 -16 20 -21 20 -4 0 -6 -4 -2 -9 8 -13 -6 -92 -15 -86 -4 2 -14 -3 -22
-13 -16 -18 -51 -102 -43 -102 3 0 -4 -16 -15 -35 -11 -20 -20 -44 -20 -55 0
-11 -4 -20 -9 -20 -5 0 -12 -12 -16 -27 -3 -15 -14 -45 -24 -68 -10 -22 -29
-67 -42 -100 -13 -33 -30 -64 -36 -70 -7 -5 -46 -93 -87 -195 -132 -330 -215
-532 -220 -538 -16 -15 -17 11 -2 42 9 19 16 37 16 40 0 3 11 29 24 58 13 29
61 147 106 263 46 116 96 239 112 274 16 35 27 72 25 83 -3 10 -2 16 3 13 4
-3 10 5 13 17 4 13 1 26 -6 30 -8 5 -7 8 5 8 11 0 24 14 33 36 18 44 19 58 3
48 -8 -5 -9 -2 -5 10 4 10 7 21 7 24 0 4 4 1 9 -7 7 -10 11 -5 16 17 7 33 1
52 -16 52 -6 0 -8 -4 -5 -9 3 -5 -8 -11 -24 -13 -17 -3 -30 -1 -30 4 0 4 -7 8
-15 8 -19 0 -19 19 0 26 25 10 19 69 -10 92 -14 11 -25 25 -25 31 0 6 -4 11
-10 11 -5 0 -10 -11 -10 -24 0 -29 -17 -44 -50 -42 -19 1 -26 7 -28 29 -4 31
17 38 25 7 6 -24 23 -16 23 11 0 10 5 19 11 19 8 0 8 4 1 13 -17 22 -20 77 -4
77 11 0 13 8 9 29 -7 32 29 119 64 157 16 17 18 26 9 48 -13 35 -13 36 5 30 9
-4 15 0 15 10 0 9 -4 16 -10 16 -5 0 -10 8 -10 18 0 14 15 23 60 36 34 9 63
23 66 31 4 8 13 15 21 15 13 0 13 4 -2 26 -16 24 -16 27 2 47 10 12 26 28 36
35 22 17 22 41 0 49 -10 4 -21 10 -24 15 -9 14 -59 -13 -59 -32 0 -10 -7 -23
-15 -30 -13 -11 -15 -7 -15 23 0 22 6 39 16 45 14 8 14 12 -4 42 -19 30 -19
35 -5 56 17 27 72 48 98 38 13 -5 16 -4 11 4 -4 7 -17 12 -29 12 -19 0 -19 2
-7 14 14 14 39 20 69 17 8 -1 11 -8 8 -21 -3 -11 0 -23 5 -27 7 -3 8 -1 4 5
-4 7 -1 12 8 12 10 0 13 -6 10 -15 -5 -11 1 -15 18 -15 18 0 36 14 64 50 21
27 45 49 52 50 6 0 13 10 13 23 1 12 2 29 3 39 1 9 4 20 8 24 14 13 8 44 -12
64 -11 11 -22 15 -25 10 -10 -17 -85 -12 -85 5 0 7 -8 18 -17 23 -15 9 -15 12
0 45 19 39 21 57 8 57 -5 0 -7 10 -3 22 5 21 6 21 12 2 6 -16 8 -14 14 14 5
22 13 32 26 32 10 0 22 5 25 10 3 6 16 10 28 10 58 0 197 35 224 56 30 24 27
42 -5 25 -10 -5 -79 -17 -153 -26 -74 -8 -146 -17 -161 -20 -25 -4 -30 2 -69
82 -38 78 -46 87 -88 106 -34 15 -73 22 -146 25 l-100 4 -198 -76 c-109 -42
-207 -80 -217 -86 -11 -6 -29 -29 -40 -52 -18 -38 -20 -62 -20 -271 l0 -229
37 6 38 5 -35 -13 -35 -13 -3 -976 -2 -977 5395 0 5395 0 0 3556 0 3557 -45
-5 c-42 -5 -44 -4 -43 18 2 18 8 24 25 24 14 0 23 -6 23 -15 0 -18 12 -19 28
-3 19 19 14 45 -11 50 -12 2 -74 1 -137 -3 -180 -12 -226 -11 -212 3 7 7 12
20 12 30 0 30 34 38 187 42 81 2 154 5 161 5 8 1 12 18 12 52 0 43 -2 50 -17
45 -29 -8 -192 -11 -199 -3 -4 4 13 7 37 7 24 0 74 3 112 7 l67 6 0 378 0 379
-5395 0 -5395 0 0 -2720z m10325 2270 c-2 -25 -9 -101 -15 -170 -6 -69 -15
-190 -21 -270 -5 -80 -13 -166 -17 -191 -6 -42 -9 -46 -28 -39 -19 8 -20 13
-13 86 4 44 17 198 29 344 12 146 23 270 25 275 1 6 12 11 23 11 18 0 20 -6
17 -46z m-6901 -392 c17 -9 16 -11 -10 -29 -22 -15 -25 -19 -11 -19 11 0 17
-5 14 -12 -2 -7 -13 -12 -23 -11 -10 2 -41 -4 -68 -13 -58 -18 -77 -14 -69 17
4 15 0 26 -12 36 -52 37 111 66 179 31z m-234 -38 c0 -5 -6 -10 -12 -11 -9 0
-9 -2 1 -6 36 -14 67 -56 39 -52 -7 1 -28 1 -45 0 l-33 -1 0 -75 c0 -41 -4
-75 -9 -75 -5 0 -22 10 -38 23 -15 13 -36 26 -45 30 -27 10 -22 28 23 90 38
54 48 61 75 58 7 -1 14 5 18 14 6 17 26 21 26 5z m426 -62 c55 -59 78 -108 52
-108 -7 0 -24 -12 -39 -26 l-26 -25 -28 33 c-40 48 -59 96 -47 122 6 12 13 29
16 39 7 23 28 12 72 -35z m-217 -119 c12 -11 21 -25 22 -32 0 -7 2 -23 4 -37
1 -14 -2 -31 -7 -37 -13 -16 -52 -17 -80 -2 -21 11 -21 12 -2 26 11 9 13 13 4
11 -8 -3 -27 -2 -42 3 -21 6 -28 4 -31 -9 -3 -10 -5 -3 -6 15 -2 45 8 64 41
78 36 15 70 9 97 -16z m-374 -29 c3 -5 21 -10 38 -10 55 0 60 -10 62 -107 0
-48 -3 -93 -8 -100 -5 -7 -20 -10 -38 -6 -17 3 -35 0 -44 -7 -20 -17 -26 -10
-36 42 -21 107 -3 235 26 188z m706 -75 c1 -19 3 -50 4 -67 3 -41 -14 -118
-26 -118 -5 0 -9 7 -9 15 0 12 -9 15 -35 13 -19 -1 -38 1 -42 6 -4 4 -8 48 -9
97 l0 89 58 0 58 0 1 -35z m-547 -257 c9 -86 8 -118 -4 -118 -18 0 -88 71
-114 115 -30 51 -31 55 -10 55 9 0 30 15 46 32 l30 33 23 -29 c15 -19 24 -48
29 -88z m140 -207 c3 -14 10 -78 16 -141 15 -163 28 -272 35 -303 7 -25 5 -27
-23 -27 -30 0 -31 1 -37 58 -3 31 -8 76 -11 100 -5 39 -3 42 18 43 l23 0 -22
11 c-32 16 -46 78 -17 78 13 0 12 4 -5 18 -18 14 -22 32 -28 108 l-6 92 26 -5
c18 -4 28 -13 31 -32z m1880 -723 c3 -13 7 -81 10 -153 3 -71 12 -274 20 -450
8 -176 18 -381 21 -455 3 -74 12 -281 20 -460 7 -179 17 -399 21 -489 l6 -164
-31 5 c-19 3 -36 -1 -42 -9 -6 -7 -16 -10 -21 -7 -5 3 -18 -2 -29 -12 -28 -25
-9 -32 69 -27 51 4 64 2 56 -6 -6 -7 -103 -23 -215 -36 -573 -67 -580 -68
-854 -91 -85 -7 -110 -13 -98 -25 6 -6 53 -4 134 6 68 8 320 35 559 60 239 25
451 48 470 51 25 4 31 2 20 -5 -13 -8 -314 -42 -1008 -115 -120 -13 -148 -20
-125 -34 6 -4 13 -25 15 -47 3 -37 1 -40 -24 -43 -16 -2 -28 -8 -28 -14 0 -19
-14 1 -17 25 -1 12 -5 34 -8 50 -3 20 0 27 11 27 8 0 14 -7 12 -16 -2 -10 3
-18 10 -20 8 -1 8 0 1 3 -8 4 -8 8 1 13 20 12 3 43 -20 37 -14 -3 -20 0 -20
11 0 28 31 52 67 52 40 0 35 20 -5 21 -24 0 -25 1 -7 9 11 5 14 9 8 9 -7 1
-13 6 -13 11 0 15 212 258 364 418 69 73 126 137 126 143 0 19 -20 49 -33 49
-12 0 -185 -173 -271 -270 -122 -138 -167 -194 -200 -249 -41 -67 -61 -75
-116 -46 -16 8 -31 12 -33 7 -10 -17 -7 -122 2 -122 6 0 11 -6 11 -13 0 -14
-40 -37 -64 -37 -17 0 -30 31 -17 40 12 7 18 76 9 86 -4 3 -53 2 -110 -3 -76
-7 -106 -6 -113 2 -17 21 -43 25 -49 8 -5 -12 -9 -13 -21 -3 -8 6 -19 9 -25 5
-14 -9 -13 36 4 117 17 79 35 116 83 169 20 22 33 42 30 45 -3 3 -24 0 -48 -6
-31 -9 -44 -9 -47 -1 -2 7 -36 11 -89 11 -76 0 -85 -2 -90 -20 -5 -20 -33 -29
-33 -10 0 19 -42 10 -47 -10 -6 -21 -27 -27 -38 -11 -3 5 -19 12 -35 16 -17 4
-30 13 -30 20 0 22 -47 434 -80 700 -27 221 -94 790 -106 895 -2 25 -9 85 -14
134 -5 49 -7 93 -4 97 3 5 49 9 102 9 53 0 123 4 154 9 31 6 122 13 202 17
l146 7 -4 -43 c-4 -35 1 -50 20 -76 30 -38 31 -54 12 -115 -15 -45 -15 -46 14
-78 15 -17 41 -37 56 -43 41 -16 292 -12 336 6 32 13 34 13 39 -5 4 -16 14
-19 64 -19 32 0 75 5 95 10 51 14 101 58 95 82 -3 10 1 44 9 76 17 74 17 116
0 151 -15 28 -83 81 -104 81 -7 0 -12 4 -12 9 0 9 64 16 310 32 91 5 242 16
335 23 250 20 244 20 249 -6z m2903 -966 c6 -4 11 -25 10 -47 -2 -34 1 -40 18
-38 10 1 31 -6 45 -16 14 -10 45 -19 70 -20 25 -2 53 -10 62 -18 17 -15 17
-17 0 -29 -15 -12 -12 -13 25 -14 23 0 48 -7 57 -15 17 -17 30 -20 21 -5 -8
13 31 13 55 0 15 -8 21 -6 29 9 6 10 17 21 24 24 11 4 13 -4 9 -39 -4 -36 -2
-44 12 -44 9 0 16 -5 16 -11 0 -16 -55 -4 -88 20 -25 17 -43 18 -197 14 -115
-3 -172 -8 -177 -16 -4 -7 -8 -7 -8 -2 0 6 -5 3 -10 -5 -8 -13 -11 -12 -23 4
-12 16 -19 17 -68 7 -31 -7 -62 -9 -70 -6 -15 5 -49 108 -49 146 0 13 10 33
22 46 19 20 23 21 37 9 21 -19 83 -25 88 -8 3 7 -4 12 -15 12 -32 0 -35 27 -4
39 33 12 93 13 109 3z m-547 -1402 c0 -6 -11 -23 -24 -37 -14 -15 -37 -49 -52
-77 -24 -44 -69 -95 -85 -96 -13 0 -113 189 -105 198 3 3 59 8 123 12 65 4
124 8 131 8 6 1 12 -3 12 -8z m842 -7 c10 -9 18 -22 18 -29 0 -20 -67 -73
-103 -79 -40 -8 -200 -1 -216 9 -6 4 -32 -4 -57 -19 -26 -15 -67 -29 -98 -32
-49 -5 -54 -4 -79 27 -31 36 -33 47 -12 78 15 20 21 21 88 16 54 -5 88 -2 130
10 31 9 105 19 165 22 59 4 109 8 111 10 10 9 36 3 53 -13z m-5470 -76 c12
-19 -9 -51 -41 -62 -18 -6 -36 -17 -41 -25 -5 -8 -12 -11 -16 -7 -4 4 -13 2
-21 -4 -8 -7 -13 -8 -13 -1 0 5 -9 12 -20 15 -11 3 -20 1 -20 -5 0 -5 -9 -6
-20 -3 -15 5 -20 2 -20 -12 -1 -16 -1 -17 -10 -1 -7 11 -19 15 -37 12 -40 -8
-45 -14 -39 -48 4 -17 8 -41 10 -53 11 -61 18 -83 27 -78 5 4 17 1 26 -4 15
-9 14 -10 -10 -11 -26 0 -28 -2 -25 -37 3 -33 7 -38 29 -41 15 -2 33 4 41 12
11 10 18 12 26 4 6 -6 15 -7 21 -4 6 4 45 9 87 10 49 3 79 9 85 17 8 14 1 69
-12 83 -4 5 -3 17 4 27 8 13 8 24 -2 45 -9 20 -9 30 -2 32 6 2 9 7 6 12 -3 4
4 6 15 3 20 -5 28 -29 11 -35 -11 -4 -14 -64 -5 -126 4 -24 2 -48 -3 -53 -11
-11 -13 -11 -171 -34 -148 -21 -144 -25 -161 137 -7 68 -9 131 -6 141 6 13 2
17 -16 17 -13 0 -19 4 -14 8 6 4 17 27 24 51 l13 43 146 -7 c84 -4 150 -12
154 -18z m2308 -1 l45 -13 8 -94 c9 -106 7 -116 -25 -121 -50 -7 -21 -88 32
-88 21 0 28 -9 47 -56 23 -62 21 -84 -8 -84 -11 0 -31 -7 -44 -16 -14 -9 -25
-13 -25 -10 0 4 -10 1 -22 -6 -13 -7 -27 -11 -31 -10 -5 1 -7 -10 -5 -25 2
-19 9 -29 23 -31 53 -7 95 -25 85 -37 -5 -7 -7 -15 -4 -18 4 -3 -1 -13 -9 -22
-9 -8 -18 -11 -21 -6 -3 5 -15 7 -26 4 -11 -3 -17 -9 -14 -14 3 -5 -16 -9 -43
-9 -32 0 -56 -7 -73 -20 -33 -26 -37 -25 -43 8 -6 29 -2 35 70 106 33 33 43
52 51 96 6 31 11 60 12 65 5 22 -1 35 -15 35 -10 0 -15 -10 -15 -28 0 -48 -51
-134 -122 -204 -48 -47 -63 -68 -53 -72 16 -6 20 -43 7 -62 -14 -22 -52 -34
-107 -34 l-56 0 5 -30 c2 -16 0 -32 -5 -36 -5 -3 -9 2 -9 10 0 19 -4 20 -30 4
-15 -9 -27 -10 -52 -1 -71 24 -78 25 -78 9 0 -9 -7 -16 -16 -16 -9 0 -22 -7
-28 -15 -7 -10 -33 -17 -71 -20 -33 -2 -72 -6 -87 -10 -15 -3 -30 0 -33 5 -4
7 -11 7 -18 2 -17 -13 -67 -24 -67 -14 0 11 22 32 33 32 4 0 5 -6 1 -12 -5 -8
-1 -8 10 1 10 8 26 15 37 16 24 2 50 25 28 25 -12 0 -12 2 1 10 26 17 -3 11
-63 -14 -63 -26 -86 -25 -113 5 -14 16 -15 23 -5 45 6 15 10 28 9 29 -2 2 -32
15 -68 30 -82 34 -143 84 -186 151 -42 66 -46 104 -5 46 58 -80 155 -138 311
-187 47 -14 94 -30 105 -35 11 -5 34 -11 50 -15 23 -4 27 -3 15 5 -12 9 -9 11
13 7 15 -2 27 -1 27 2 0 9 -121 41 -155 41 -32 0 -81 24 -88 44 -7 17 13 26
59 26 36 0 143 44 156 64 12 17 9 58 -2 51 -6 -4 -8 -10 -5 -15 3 -5 1 -11 -4
-15 -5 -3 -14 3 -20 12 -6 10 -11 13 -11 6 0 -7 -7 -10 -15 -7 -8 4 -21 1 -28
-4 -20 -17 -93 6 -112 34 -9 14 -21 22 -27 18 -7 -4 -8 2 -3 17 3 13 3 19 -2
13 -7 -10 -49 -18 -77 -15 -5 1 -1 11 10 23 l19 21 -35 -6 c-31 -5 -32 -5 -12
5 13 7 26 24 29 40 3 16 12 28 22 29 11 0 9 3 -6 9 -24 10 -28 27 -38 148 -5
71 -2 78 29 73 5 -1 6 5 2 14 -7 19 3 23 77 29 32 3 83 10 115 15 31 6 192 24
357 41 165 17 305 33 310 35 23 8 83 4 125 -9z m2799 -193 c67 -56 169 -217
157 -248 -3 -8 -2 -15 3 -15 5 0 11 -9 14 -20 9 -33 -9 -23 -56 33 -68 79
-181 277 -159 277 5 0 23 -12 41 -27z m-4589 -390 c1 -17 1 -17 11 0 15 25 52
21 127 -15 37 -18 73 -33 80 -33 6 0 24 -12 40 -26 36 -33 46 -39 367 -190 92
-43 136 -59 145 -54 4 3 10 -2 14 -10 3 -8 4 -15 2 -15 -2 0 -28 -5 -57 -11
-100 -20 -354 -56 -361 -52 -5 2 -8 13 -8 24 0 20 -24 26 -35 9 -5 -8 -11 -8
-19 0 -7 5 -27 7 -45 4 -24 -5 -31 -12 -31 -30 0 -26 -14 -37 -48 -39 -13 0
-26 -5 -30 -10 -4 -6 -29 -11 -57 -11 -92 -2 -105 -4 -105 -12 0 -5 14 -8 30
-7 38 2 53 -16 54 -66 1 -40 -19 -56 -27 -21 -4 16 -4 16 -12 -1 -5 -13 -1
-28 13 -47 24 -32 16 -40 -44 -40 -27 0 -34 -4 -34 -19 0 -13 -10 -20 -31 -25
-56 -11 -72 -8 -64 12 6 14 9 27 14 51 1 2 8 -2 16 -9 13 -11 15 -8 15 18 0
40 17 85 30 77 5 -3 12 7 16 22 3 15 8 34 10 42 2 7 -1 20 -7 28 -9 10 -10 71
-5 229 4 119 10 222 13 230 7 20 23 17 23 -3z m-2680 -217 c0 -8 -17 -28 -37
-45 -21 -17 -31 -31 -24 -31 8 0 22 7 32 16 17 15 18 15 16 -5 0 -11 -3 -18
-6 -16 -2 3 -11 -1 -20 -9 -9 -7 -43 -16 -75 -20 -33 -4 -93 -15 -134 -26 -82
-22 -112 -25 -112 -12 0 10 43 30 131 62 31 11 85 38 120 60 66 40 109 51 109
26z m6674 -1357 c30 -24 35 -77 11 -119 -8 -14 -14 -36 -15 -50 0 -14 -7 -35
-15 -47 -17 -25 -22 -126 -7 -163 5 -14 12 -47 16 -75 4 -27 16 -77 27 -109
10 -33 19 -83 19 -111 0 -35 5 -57 15 -65 8 -7 15 -21 15 -30 0 -10 3 -26 6
-35 5 -13 8 -14 15 -3 7 10 9 9 9 -4 0 -9 -4 -20 -10 -23 -10 -6 -8 -55 4 -74
8 -13 -2 -52 -13 -48 -4 1 -24 -7 -45 -18 -35 -19 -37 -22 -34 -62 3 -45 -15
-62 -20 -19 -2 17 -10 26 -25 28 -19 3 -22 10 -23 51 -1 26 2 47 7 47 5 0 9 7
9 15 0 20 -16 19 -24 -1 -4 -11 -10 -13 -19 -6 -6 5 -32 7 -57 3 -45 -6 -45
-6 -42 -43 2 -20 -2 -46 -8 -58 l-12 -22 -29 28 -29 28 -1 -30 c0 -28 0 -29
-10 -5 -16 40 -23 14 -9 -31 16 -49 25 -57 60 -58 14 -1 61 -12 105 -25 l80
-24 -257 0 c-152 -1 -258 3 -258 8 0 20 54 51 87 51 44 0 47 10 63 187 10 110
11 151 2 181 -24 79 -10 198 38 327 18 46 23 80 22 150 0 78 3 95 23 126 75
115 256 186 329 128z m218 -818 c15 -30 58 -79 58 -66 0 2 23 -9 50 -26 50
-31 65 -47 33 -35 -15 6 -15 4 2 -14 10 -11 15 -20 12 -20 -8 0 42 -141 55
-155 18 -20 6 -25 -56 -25 -63 0 -65 1 -71 30 -4 16 -11 28 -17 27 -6 -1 -17
29 -24 67 -7 38 -18 72 -23 75 -13 8 -71 132 -71 152 0 41 29 35 52 -10z"/>
<path d="M4190 4130 c-8 -5 -25 -10 -37 -10 -12 0 -36 -13 -53 -30 -17 -16
-43 -33 -58 -36 -29 -7 -112 -54 -205 -115 -32 -22 -67 -39 -78 -39 -23 0 -23
-4 -3 -35 9 -14 20 -22 26 -19 5 3 5 11 -2 19 -11 13 6 25 36 25 8 0 83 34
167 75 102 51 166 89 194 117 41 40 52 58 36 58 -5 0 -15 -5 -23 -10z"/>
<path d="M4839 7956 c-4 -4 -94 -7 -579 -21 -91 -3 -223 -7 -295 -10 -409 -17
-678 -27 -787 -29 -42 0 -80 -5 -85 -10 -8 -9 220 -4 662 14 127 5 451 17 720
26 270 9 494 21 500 25 5 5 -21 9 -61 9 -39 0 -73 -2 -75 -4z"/>
<path d="M8787 6993 c-5 -9 -27 -11 -72 -7 -35 2 -66 1 -69 -4 -3 -5 -28 -7
-56 -4 -27 2 -50 1 -50 -4 0 -5 -19 -8 -42 -7 -22 0 -82 -5 -132 -12 -50 -8
-147 -16 -216 -20 -69 -4 -150 -10 -180 -15 -41 -7 -26 -8 60 -4 110 5 490 27
673 40 76 5 88 3 93 -11 10 -25 -8 -32 -114 -38 -53 -3 -108 -9 -122 -12 -14
-3 -45 -5 -70 -6 -25 0 -76 -4 -115 -9 -38 -5 -101 -12 -140 -15 -61 -4 -111
-9 -305 -29 -19 -2 -53 -4 -74 -5 -22 0 -36 -4 -33 -7 7 -7 380 16 687 41 208
18 276 19 285 4 4 -6 5 -12 4 -14 -2 -1 -62 -8 -134 -14 -71 -6 -175 -16 -230
-21 -55 -5 -262 -23 -460 -40 -198 -16 -407 -34 -465 -40 -58 -5 -267 -24
-465 -40 -438 -38 -614 -57 -535 -59 30 0 93 3 140 9 47 5 182 16 300 25 221
16 724 57 910 75 58 5 141 12 185 15 117 8 546 44 648 55 49 5 95 6 103 3 19
-7 29 23 14 42 -9 11 -9 23 -2 44 6 16 6 33 2 37 -5 5 -10 20 -12 34 -2 17 -6
21 -11 13z"/>
<path d="M8540 6789 c-91 -10 -262 -27 -380 -38 -337 -32 -1135 -109 -1350
-131 -203 -20 -407 -41 -620 -61 -171 -16 -255 -30 -140 -23 98 6 490 39 630
54 52 5 176 17 275 25 216 19 747 70 935 90 293 31 672 66 688 63 9 -2 -59
-12 -153 -21 -93 -10 -321 -36 -505 -57 -184 -22 -438 -50 -565 -64 -126 -14
-291 -32 -365 -41 -74 -8 -225 -24 -335 -36 -300 -31 -504 -57 -467 -58 18 -1
119 8 225 19 105 10 239 24 297 29 58 6 191 19 295 31 105 11 255 27 335 35
219 22 319 34 495 55 88 11 179 22 202 25 27 3 43 0 46 -8 3 -9 10 -7 23 5 15
13 41 18 101 20 45 2 79 6 77 10 -3 4 22 7 53 7 32 0 72 2 88 5 17 3 86 13
155 23 118 17 122 18 75 24 -35 5 -24 6 35 4 54 -2 74 0 55 5 -28 7 -28 8 13
9 27 1 42 -3 43 -11 0 -7 0 -101 0 -208 0 -138 3 -186 10 -165 5 17 10 110 12
208 2 149 0 179 -13 187 -20 13 -75 11 -270 -11z"/>
<path d="M7899 6656 c-5 -5 -395 -52 -954 -116 -369 -42 -543 -63 -870 -104
-110 -14 -234 -29 -275 -34 -41 -5 -62 -10 -46 -11 27 -1 141 12 716 80 140
16 311 36 380 44 281 33 477 55 688 80 122 14 246 30 274 35 28 6 66 10 84 10
18 0 36 5 39 10 6 10 -27 15 -36 6z"/>
<path d="M6815 6494 c-220 -31 -527 -71 -860 -113 -270 -34 -318 -41 -324 -47
-3 -4 12 -4 34 0 22 3 119 15 215 26 193 23 368 45 475 60 39 6 176 24 305 41
310 40 415 57 365 57 -22 0 -116 -11 -210 -24z"/>
<path d="M1393 1240 c-3 -11 -8 -18 -12 -16 -3 2 -11 -7 -18 -20 -7 -15 -7
-24 -1 -24 6 0 8 -7 5 -15 -4 -8 -1 -17 4 -21 6 -3 1 -12 -11 -21 -17 -12 -19
-17 -9 -24 10 -6 8 -9 -8 -9 -15 0 -23 -6 -23 -17 0 -15 -2 -16 -10 -3 -6 9
-5 17 2 21 12 8 -8 69 -22 69 -19 0 -42 -41 -36 -65 4 -14 2 -25 -4 -25 -16 0
-12 -21 14 -86 27 -66 50 -80 66 -39 5 14 9 31 7 38 -1 6 9 13 23 14 14 1 19
0 13 -3 -18 -8 -16 -24 2 -24 8 0 15 -6 15 -14 0 -8 -7 -16 -15 -20 -8 -3 -15
-13 -15 -22 0 -13 8 -15 40 -12 26 2 41 -1 44 -9 3 -7 21 -13 41 -13 33 0 35
2 29 24 -5 22 -2 25 31 32 23 4 45 2 60 -6 25 -13 45 -7 45 14 0 9 18 16 48
20 26 4 61 11 77 16 17 6 73 15 125 21 211 25 195 20 193 54 -1 16 -7 31 -13
33 -21 7 -10 32 15 32 14 0 25 5 25 11 0 9 20 10 69 5 43 -4 72 -2 76 4 3 5
20 10 38 10 21 0 28 3 21 10 -7 7 -34 7 -84 -1 -40 -6 -88 -9 -107 -6 -18 3
-35 1 -38 -4 -4 -5 -22 -9 -41 -9 -24 0 -34 -5 -34 -15 0 -8 5 -15 10 -15 6 0
5 -8 -2 -20 -11 -16 -9 -22 7 -34 18 -13 17 -15 -24 -26 -51 -14 -72 -2 -44
25 13 13 14 20 5 23 -6 2 -12 10 -12 17 0 17 -34 28 -59 20 -26 -8 -25 -75 1
-75 26 0 22 -19 -4 -24 -13 -2 -57 -11 -98 -20 -41 -9 -86 -16 -100 -16 -24 0
-24 1 7 21 26 17 32 26 27 44 -7 29 6 37 30 20 11 -8 15 -19 10 -27 -4 -7 -4
-10 0 -6 4 3 21 2 38 -3 39 -11 57 2 56 41 -1 19 -7 30 -20 33 -12 3 -16 11
-12 21 4 10 1 16 -9 16 -8 0 -29 3 -47 7 -25 5 -32 3 -28 -8 3 -8 0 -19 -7
-25 -28 -28 -85 -27 -85 2 0 8 -8 14 -18 14 -10 0 -27 7 -38 15 -25 19 -38 19
-31 1 8 -19 -23 -10 -40 12 -8 10 -13 11 -13 4 0 -7 -4 -12 -10 -12 -5 0 -10
7 -10 15 0 8 7 15 15 15 22 0 18 17 -6 23 -15 4 -22 -1 -29 -19 -8 -20 -15
-23 -34 -18 -13 3 -27 1 -30 -5 -12 -19 -26 -12 -26 13 0 30 20 38 38 17 12
-14 13 -13 7 9 -4 14 -7 33 -6 43 0 24 -30 22 -36 -3z"/>
</g>
</svg>
